<svg xmlns="http://www.w3.org/2000/svg" width="19" height="19" viewBox="0 0 19 19" fill="none">
<path fill-rule="evenodd" clip-rule="evenodd" d="M9.75589 0.244082C9.59969 0.087798 9.38769 0 9.16667 0C8.94566 0 8.73369 0.087798 8.57741 0.244082C8.42113 0.400362 8.33334 0.612322 8.33334 0.833332V1.66666C8.33334 1.88768 8.42113 2.09964 8.57741 2.25592C8.73369 2.4122 8.94566 2.5 9.16667 2.5C9.38769 2.5 9.59969 2.4122 9.75589 2.25592C9.91219 2.09964 9.99999 1.88768 9.99999 1.66666V0.833332C9.99999 0.612322 9.91219 0.400362 9.75589 0.244082ZM2.5 1.66684C2.27903 1.66684 2.06711 1.75461 1.91084 1.91083C1.75461 2.0671 1.66685 2.27903 1.66685 2.5C1.66685 2.72097 1.75461 2.93289 1.91084 3.08916L3.16084 4.33916C3.318 4.49096 3.52851 4.57496 3.747 4.57306C3.9655 4.57116 4.17451 4.48352 4.32902 4.32901C4.48352 4.17451 4.57117 3.9655 4.57306 3.747C4.57496 3.5285 4.49097 3.318 4.33917 3.16083L3.08917 1.91083C2.9329 1.75461 2.72097 1.66684 2.5 1.66684ZM16.6665 2.5C16.6665 2.27903 16.5787 2.0671 16.4225 1.91083C16.2662 1.75461 16.0543 1.66684 15.8333 1.66684C15.6124 1.66684 15.4005 1.75461 15.2442 1.91083L13.9942 3.16083C13.9146 3.2377 13.8511 3.32966 13.8074 3.43133C13.7638 3.533 13.7408 3.64235 13.7398 3.753C13.7388 3.86365 13.7599 3.97338 13.8018 4.07579C13.8437 4.17821 13.9056 4.27125 13.9838 4.34949C14.0621 4.42774 14.1551 4.48962 14.2576 4.53152C14.36 4.57342 14.4697 4.5945 14.5803 4.59354C14.691 4.59258 14.8003 4.56959 14.902 4.52592C15.0037 4.48224 15.0956 4.41876 15.1725 4.33916L16.4225 3.08916C16.5787 2.93289 16.6665 2.72097 16.6665 2.5ZM0.244077 8.57709C0.087797 8.73337 0 8.94533 0 9.16634C0 9.38735 0.087797 9.59935 0.244077 9.75555C0.400357 9.91185 0.612317 9.99965 0.833337 9.99965H1.66667C1.88768 9.99965 2.09964 9.91185 2.25593 9.75555C2.41221 9.59935 2.5 9.38735 2.5 9.16634C2.5 8.94533 2.41221 8.73337 2.25593 8.57709C2.09964 8.42081 1.88768 8.33301 1.66667 8.33301H0.833337C0.612317 8.33301 0.400357 8.42081 0.244077 8.57709ZM16.0774 8.57709C15.9211 8.73337 15.8333 8.94533 15.8333 9.16634C15.8333 9.38735 15.9211 9.59935 16.0774 9.75555C16.2337 9.91185 16.4457 9.99965 16.6667 9.99965H17.5C17.721 9.99965 17.933 9.91185 18.0893 9.75555C18.2455 9.59935 18.3333 9.38735 18.3333 9.16634C18.3333 8.94533 18.2455 8.73337 18.0893 8.57709C17.933 8.42081 17.721 8.33301 17.5 8.33301H16.6667C16.4457 8.33301 16.2337 8.42081 16.0774 8.57709ZM4.58316 14.5834C4.58316 14.3624 4.49539 14.1505 4.33917 13.9942C4.1829 13.838 3.97097 13.7502 3.75 13.7502C3.52903 13.7502 3.31711 13.838 3.16084 13.9942L1.91084 15.2442C1.75904 15.4014 1.67504 15.6119 1.67694 15.8304C1.67884 16.0489 1.76648 16.2579 1.92099 16.4124C2.07549 16.5669 2.2845 16.6545 2.503 16.6564C2.7215 16.6583 2.932 16.5743 3.08917 16.4225L4.33917 15.1725C4.49539 15.0163 4.58316 14.8043 4.58316 14.5834ZM14.5833 13.7502C14.3624 13.7502 14.1505 13.838 13.9942 13.9942C13.838 14.1505 13.7502 14.3624 13.7502 14.5834C13.7502 14.8043 13.838 15.0163 13.9942 15.1725L15.2442 16.4225C15.4013 16.5743 15.6118 16.6583 15.8303 16.6564C16.0488 16.6545 16.2579 16.5669 16.4124 16.4124C16.5669 16.2579 16.6545 16.0489 16.6564 15.8304C16.6583 15.6119 16.5743 15.4014 16.4225 15.2442L15.1725 13.9942C15.0162 13.838 14.8043 13.7502 14.5833 13.7502ZM9.75586 16.077C9.59966 15.9208 9.38766 15.833 9.16664 15.833C8.94563 15.833 8.73366 15.9208 8.57738 16.077C8.4211 16.2333 8.33331 16.4453 8.33331 16.6663V17.4996C8.33331 17.7206 8.4211 17.9326 8.57738 18.0889C8.73366 18.2452 8.94563 18.333 9.16664 18.333C9.38766 18.333 9.59966 18.2452 9.75586 18.0889C9.91216 17.9326 9.99996 17.7206 9.99996 17.4996V16.6663C9.99996 16.4453 9.91216 16.2333 9.75586 16.077ZM6.22039 6.22039C7.00179 5.43899 8.0616 5 9.16667 5C10.2717 5 11.3316 5.43899 12.113 6.22039C12.8944 7.00179 13.3333 8.0616 13.3333 9.16666C13.3333 10.2718 12.8944 11.3316 12.113 12.113C11.3316 12.8944 10.2717 13.3334 9.16667 13.3334C8.0616 13.3334 7.00179 12.8944 6.22039 12.113C5.43899 11.3316 5 10.2718 5 9.16666C5 8.0616 5.43899 7.00179 6.22039 6.22039Z" fill="#828FA3"/>
</svg>
